<?xml version="1.0" encoding="UTF-8" standalone="no"?>
<svg
   xmlns:dc="http://purl.org/dc/elements/1.1/"
   xmlns:cc="http://creativecommons.org/ns#"
   xmlns:rdf="http://www.w3.org/1999/02/22-rdf-syntax-ns#"
   xmlns:svg="http://www.w3.org/2000/svg"
   xmlns="http://www.w3.org/2000/svg"
   xmlns:sodipodi="http://sodipodi.sourceforge.net/DTD/sodipodi-0.dtd"
   xmlns:inkscape="http://www.inkscape.org/namespaces/inkscape"
   width="16"
   height="16"
   version="1.1"
   id="svg10315"
   sodipodi:docname="gdscript_extra_small.svg"
   inkscape:version="0.92.5 (2060ec1f9f, 2020-04-08)">
  <metadata
     id="metadata10321">
    <rdf:RDF>
      <cc:Work
         rdf:about="">
        <dc:format>image/svg+xml</dc:format>
        <dc:type
           rdf:resource="http://purl.org/dc/dcmitype/StillImage" />
      </cc:Work>
    </rdf:RDF>
  </metadata>
  <defs
     id="defs10319">
    <linearGradient
       id="linearGradient2126">
      <stop
         id="stop2128"
         style="stop-color:#bcc6e2"
         offset="0" />
      <stop
         id="stop2130"
         style="stop-color:#7a879d"
         offset="1" />
    </linearGradient>
    <linearGradient
       id="linearGradient2118"
       y2="41.229"
       gradientUnits="userSpaceOnUse"
       y1="26.070999"
       gradientTransform="scale(2.7312,0.36614)"
       x2="16.211"
       x1="2.796">
      <stop
         id="stop2122"
         style="stop-color:#7c819f"
         offset="0" />
      <stop
         id="stop2124"
         style="stop-color:#ffffff"
         offset="1" />
    </linearGradient>
    <linearGradient
       id="linearGradient2110"
       y2="56.445999"
       gradientUnits="userSpaceOnUse"
       y1="35.025002"
       gradientTransform="scale(0.97377,1.0269)"
       x2="60.275002"
       x1="7.7020001">
      <stop
         id="stop2106"
         style="stop-color:#dcdeed"
         offset="0" />
      <stop
         id="stop2108"
         style="stop-color:#9fa8bd"
         offset="1" />
    </linearGradient>
  </defs>
  <sodipodi:namedview
     pagecolor="#ffffff"
     bordercolor="#666666"
     borderopacity="1"
     objecttolerance="10"
     gridtolerance="10"
     guidetolerance="10"
     inkscape:pageopacity="0"
     inkscape:pageshadow="2"
     inkscape:window-width="1920"
     inkscape:window-height="1017"
     id="namedview10317"
     showgrid="false"
     inkscape:zoom="41.7193"
     inkscape:cx="5.9372343"
     inkscape:cy="7.7777301"
     inkscape:window-x="-8"
     inkscape:window-y="-8"
     inkscape:window-maximized="1"
     inkscape:current-layer="svg10315" />
  <path
     d="M12.698 4.59c-.368-.508-2.218-.623-3.086-.546.034-1.064.492-1.839-.593-2.766m-6.49-.51H7.25c1.205-.032 1.977.591 2.788 1.326L11.97 3.81c.998.89 1.393 1.729 1.5 2.94v8.483H2.53z"
     fill="#eff1f5"
     stroke="#9f9fa1"
     stroke-linecap="round"
     stroke-linejoin="round"
     id="path10311" />
  <path
     d="M7.39 4.721l-.346 1.38a3.056 3.056 0 0 0-.421.171l-1.216-.73-.864.865.73 1.219a3.056 3.056 0 0 0-.174.419l-1.377.344V9.61l1.38.345a3.056 3.056 0 0 0 .17.42l-.729 1.217.864.864 1.22-.73a3.056 3.056 0 0 0 .418.174l.344 1.377h1.222l.345-1.38a3.056 3.056 0 0 0 .42-.17l1.217.73.864-.865-.73-1.219a3.056 3.056 0 0 0 .174-.42l1.378-.343V8.39l-1.38-.345a3.056 3.056 0 0 0-.17-.42l.729-1.217-.865-.864-1.219.73a3.056 3.056 0 0 0-.419-.174L8.611 4.72H7.39zM8 7.777A1.222 1.222 0 0 1 9.223 9 1.222 1.222 0 0 1 8 10.222 1.222 1.222 0 0 1 6.778 9 1.222 1.222 0 0 1 8 7.777z"
     fill="#478cbf"
     id="path10313"
     style="fill:#df626b;fill-opacity:1" />
</svg>
