<?xml version="1.0" encoding="UTF-8" standalone="no"?>
<svg
   xmlns:dc="http://purl.org/dc/elements/1.1/"
   xmlns:cc="http://creativecommons.org/ns#"
   xmlns:rdf="http://www.w3.org/1999/02/22-rdf-syntax-ns#"
   xmlns:svg="http://www.w3.org/2000/svg"
   xmlns="http://www.w3.org/2000/svg"
   xmlns:sodipodi="http://sodipodi.sourceforge.net/DTD/sodipodi-0.dtd"
   xmlns:inkscape="http://www.inkscape.org/namespaces/inkscape"
   height="1024"
   width="1024"
   version="1.1"
   id="svg9617"
   sodipodi:docname="gdscript.svg"
   inkscape:version="0.92.5 (2060ec1f9f, 2020-04-08)">
  <metadata
     id="metadata9623">
    <rdf:RDF>
      <cc:Work
         rdf:about="">
        <dc:format>image/svg+xml</dc:format>
        <dc:type
           rdf:resource="http://purl.org/dc/dcmitype/StillImage" />
      </cc:Work>
    </rdf:RDF>
  </metadata>
  <defs
     id="defs9621">
    <linearGradient
       id="linearGradient2126">
      <stop
         id="stop2128"
         style="stop-color:#bcc6e2"
         offset="0" />
      <stop
         id="stop2130"
         style="stop-color:#7a879d"
         offset="1" />
    </linearGradient>
    <linearGradient
       id="linearGradient2118"
       y2="41.229"
       gradientUnits="userSpaceOnUse"
       y1="26.070999"
       gradientTransform="scale(2.7312,0.36614)"
       x2="16.211"
       x1="2.796">
      <stop
         id="stop2122"
         style="stop-color:#7c819f"
         offset="0" />
      <stop
         id="stop2124"
         style="stop-color:#ffffff"
         offset="1" />
    </linearGradient>
    <linearGradient
       id="linearGradient2110"
       y2="56.445999"
       gradientUnits="userSpaceOnUse"
       y1="35.025002"
       gradientTransform="scale(0.97377,1.0269)"
       x2="60.275002"
       x1="7.7020001">
      <stop
         id="stop2106"
         style="stop-color:#dcdeed"
         offset="0" />
      <stop
         id="stop2108"
         style="stop-color:#9fa8bd"
         offset="1" />
    </linearGradient>
  </defs>
  <sodipodi:namedview
     pagecolor="#ffffff"
     bordercolor="#666666"
     borderopacity="1"
     objecttolerance="10"
     gridtolerance="10"
     guidetolerance="10"
     inkscape:pageopacity="0"
     inkscape:pageshadow="2"
     inkscape:window-width="1920"
     inkscape:window-height="1017"
     id="namedview9619"
     showgrid="false"
     inkscape:zoom="0.32593203"
     inkscape:cx="357.34438"
     inkscape:cy="591.59844"
     inkscape:window-x="-8"
     inkscape:window-y="-8"
     inkscape:window-maximized="1"
     inkscape:current-layer="svg9617" />
  <path
     d="m812.681 293.783c-23.575-32.543-141.93-39.865-197.505-34.983 2.17-68.048 31.457-117.656-37.966-177.026m-415.32-32.623h302.11c77.128-2.02 126.554 37.835 178.444 84.881l123.665 109.83c63.819 56.94 89.13 110.625 96 188.174v542.886h-700.219z"
     fill="#eff1f5"
     stroke="#9f9fa1"
     stroke-linecap="round"
     stroke-linejoin="round"
     stroke-width="19.603"
     id="path9609" />
  <path
     d="m481.818 300.713-17.037 68.149a150.92 150.92 0 0 0 -20.81 8.43l-60.015-36.021-42.683 42.683 36.079 60.19a150.92 150.92 0 0 0 -8.608 20.693l-68.031 16.978v60.368l68.149 17.037a150.92 150.92 0 0 0 8.43 20.752l-36.021 60.072 42.683 42.683 60.19-36.079a150.92 150.92 0 0 0 20.693 8.608l16.978 68.031h60.368l17.037-68.149a150.92 150.92 0 0 0 20.752-8.43l60.072 36.021 42.683-42.683-36.079-60.19a150.92 150.92 0 0 0 8.608-20.693l68.031-16.978v-60.368l-68.149-17.037a150.92 150.92 0 0 0 -8.43-20.752l36.021-60.072-42.683-42.683-60.19 36.079a150.92 150.92 0 0 0 -20.693-8.608l-16.978-68.031h-60.368zm30.184 150.92a60.368 60.368 0 0 1 60.368 60.367 60.368 60.368 0 0 1 -60.368 60.368 60.368 60.368 0 0 1 -60.368-60.368 60.368 60.368 0 0 1 60.368-60.368z"
     fill="#478cbf"
     id="path9615"
     style="fill:#de616a;fill-opacity:1" />
  <text
     xml:space="preserve"
     style="font-style:normal;font-variant:normal;font-weight:bold;font-stretch:normal;font-size:113.56268311px;line-height:1.25;font-family:Montserrat;-inkscape-font-specification:'Montserrat Bold';letter-spacing:0px;word-spacing:0px;fill:#000000;fill-opacity:1;stroke:none;stroke-width:1.52092886"
     x="203.47131"
     y="879.68292"
     id="text10280"><tspan
       sodipodi:role="line"
       id="tspan10278"
       x="203.47131"
       y="879.68292"
       style="font-style:normal;font-variant:normal;font-weight:bold;font-stretch:normal;font-family:Montserrat;-inkscape-font-specification:'Montserrat Bold';stroke-width:1.52092886">TDSCRIPT</tspan></text>
</svg>
