<?xml version="1.0" encoding="UTF-8" standalone="no"?>
<svg
   xmlns:dc="http://purl.org/dc/elements/1.1/"
   xmlns:cc="http://creativecommons.org/ns#"
   xmlns:rdf="http://www.w3.org/1999/02/22-rdf-syntax-ns#"
   xmlns:svg="http://www.w3.org/2000/svg"
   xmlns="http://www.w3.org/2000/svg"
   xmlns:sodipodi="http://sodipodi.sourceforge.net/DTD/sodipodi-0.dtd"
   xmlns:inkscape="http://www.inkscape.org/namespaces/inkscape"
   height="16"
   width="16"
   version="1.1"
   id="svg14431"
   sodipodi:docname="scene_extra_small.svg"
   inkscape:version="0.92.5 (2060ec1f9f, 2020-04-08)">
  <metadata
     id="metadata14437">
    <rdf:RDF>
      <cc:Work
         rdf:about="">
        <dc:format>image/svg+xml</dc:format>
        <dc:type
           rdf:resource="http://purl.org/dc/dcmitype/StillImage" />
      </cc:Work>
    </rdf:RDF>
  </metadata>
  <defs
     id="defs14435">
    <linearGradient
       id="linearGradient2126">
      <stop
         id="stop2128"
         style="stop-color:#bcc6e2"
         offset="0" />
      <stop
         id="stop2130"
         style="stop-color:#7a879d"
         offset="1" />
    </linearGradient>
    <linearGradient
       id="linearGradient2118"
       y2="41.229"
       gradientUnits="userSpaceOnUse"
       y1="26.070999"
       gradientTransform="scale(2.7312,0.36614)"
       x2="16.211"
       x1="2.796">
      <stop
         id="stop2122"
         style="stop-color:#7c819f"
         offset="0" />
      <stop
         id="stop2124"
         style="stop-color:#ffffff"
         offset="1" />
    </linearGradient>
    <linearGradient
       id="linearGradient2110"
       y2="56.445999"
       gradientUnits="userSpaceOnUse"
       y1="35.025002"
       gradientTransform="scale(0.97377,1.0269)"
       x2="60.275002"
       x1="7.7020001">
      <stop
         id="stop2106"
         style="stop-color:#dcdeed"
         offset="0" />
      <stop
         id="stop2108"
         style="stop-color:#9fa8bd"
         offset="1" />
    </linearGradient>
  </defs>
  <sodipodi:namedview
     pagecolor="#ffffff"
     bordercolor="#666666"
     borderopacity="1"
     objecttolerance="10"
     gridtolerance="10"
     guidetolerance="10"
     inkscape:pageopacity="0"
     inkscape:pageshadow="2"
     inkscape:window-width="1920"
     inkscape:window-height="1017"
     id="namedview14433"
     showgrid="false"
     inkscape:zoom="14.75"
     inkscape:cx="8"
     inkscape:cy="8"
     inkscape:window-x="-8"
     inkscape:window-y="-8"
     inkscape:window-maximized="1"
     inkscape:current-layer="svg14431" />
  <path
     d="m12.698 4.59c-.368-.508-2.218-.623-3.086-.546.034-1.064.492-1.839-.593-2.766m-6.49-.51h4.721c1.205-.032 1.977.591 2.788 1.326l1.932 1.716c.998.89 1.393 1.729 1.5 2.94v8.483h-10.94z"
     fill="#eff1f5"
     stroke="#9f9fa1"
     stroke-linecap="round"
     stroke-linejoin="round"
     id="path14427" />
  <path
     d="m12.101 5.027-1.372.2.5 1.162 1.049-.153zm-2.581.376-1.21.177.5 1.162 1.21-.176zm-2.42.353-1.21.177.501 1.163 1.21-.177zm-2.419.354-1.048.152.177 1.21 1.372-.2zm-.871 1.973v3.667c0 .676.547 1.223 1.222 1.223h7.335v-4.89z"
     fill="#478cbf"
     id="path14429"
     style="fill:#df626b;fill-opacity:1" />
</svg>
