<?xml version="1.0" encoding="UTF-8" standalone="no"?>
<svg
   xmlns:dc="http://purl.org/dc/elements/1.1/"
   xmlns:cc="http://creativecommons.org/ns#"
   xmlns:rdf="http://www.w3.org/1999/02/22-rdf-syntax-ns#"
   xmlns:svg="http://www.w3.org/2000/svg"
   xmlns="http://www.w3.org/2000/svg"
   xmlns:sodipodi="http://sodipodi.sourceforge.net/DTD/sodipodi-0.dtd"
   xmlns:inkscape="http://www.inkscape.org/namespaces/inkscape"
   width="32"
   height="32"
   version="1.1"
   id="svg15074"
   sodipodi:docname="scene_small.svg"
   inkscape:version="0.92.5 (2060ec1f9f, 2020-04-08)">
  <metadata
     id="metadata15080">
    <rdf:RDF>
      <cc:Work
         rdf:about="">
        <dc:format>image/svg+xml</dc:format>
        <dc:type
           rdf:resource="http://purl.org/dc/dcmitype/StillImage" />
      </cc:Work>
    </rdf:RDF>
  </metadata>
  <defs
     id="defs15078">
    <linearGradient
       id="linearGradient2126">
      <stop
         id="stop2128"
         style="stop-color:#bcc6e2"
         offset="0" />
      <stop
         id="stop2130"
         style="stop-color:#7a879d"
         offset="1" />
    </linearGradient>
    <linearGradient
       id="linearGradient2118"
       y2="41.229"
       gradientUnits="userSpaceOnUse"
       y1="26.070999"
       gradientTransform="scale(2.7312,0.36614)"
       x2="16.211"
       x1="2.796">
      <stop
         id="stop2122"
         style="stop-color:#7c819f"
         offset="0" />
      <stop
         id="stop2124"
         style="stop-color:#ffffff"
         offset="1" />
    </linearGradient>
    <linearGradient
       id="linearGradient2110"
       y2="56.445999"
       gradientUnits="userSpaceOnUse"
       y1="35.025002"
       gradientTransform="scale(0.97377,1.0269)"
       x2="60.275002"
       x1="7.7020001">
      <stop
         id="stop2106"
         style="stop-color:#dcdeed"
         offset="0" />
      <stop
         id="stop2108"
         style="stop-color:#9fa8bd"
         offset="1" />
    </linearGradient>
  </defs>
  <sodipodi:namedview
     pagecolor="#ffffff"
     bordercolor="#666666"
     borderopacity="1"
     objecttolerance="10"
     gridtolerance="10"
     guidetolerance="10"
     inkscape:pageopacity="0"
     inkscape:pageshadow="2"
     inkscape:window-width="1920"
     inkscape:window-height="1017"
     id="namedview15076"
     showgrid="false"
     inkscape:zoom="7.375"
     inkscape:cx="-7.2542373"
     inkscape:cy="16"
     inkscape:window-x="-8"
     inkscape:window-y="-8"
     inkscape:window-maximized="1"
     inkscape:current-layer="svg15074" />
  <path
     d="M25.396 9.18c-.736-1.016-4.435-1.245-6.172-1.093.068-2.126.983-3.676-1.186-5.532M5.059 1.536H14.5c2.41-.063 3.955 1.182 5.576 2.652l3.865 3.433c1.994 1.779 2.785 3.457 3 5.88v16.965H5.059z"
     fill="#eff1f5"
     stroke="#9f9fa1"
     stroke-linecap="round"
     stroke-linejoin="round"
     id="path15070" />
  <path
     d="M22.329 11.869l-2.117.31.772 1.792 1.617-.236zm-3.983.58l-1.867.273.772 1.794 1.867-.273zm-3.735.545l-1.866.273.772 1.794 1.866-.272zm-3.732.546l-1.618.235.273 1.867 2.117-.31zm-1.345 3.045v5.66c0 1.041.845 1.886 1.887 1.886H22.74v-7.546z"
     fill="#478cbf"
     id="path15072"
     style="fill:#dd6069;fill-opacity:1" />
</svg>
