<?xml version="1.0" encoding="UTF-8" standalone="no"?>
<svg
   xmlns:dc="http://purl.org/dc/elements/1.1/"
   xmlns:cc="http://creativecommons.org/ns#"
   xmlns:rdf="http://www.w3.org/1999/02/22-rdf-syntax-ns#"
   xmlns:svg="http://www.w3.org/2000/svg"
   xmlns="http://www.w3.org/2000/svg"
   xmlns:xlink="http://www.w3.org/1999/xlink"
   xmlns:sodipodi="http://sodipodi.sourceforge.net/DTD/sodipodi-0.dtd"
   xmlns:inkscape="http://www.inkscape.org/namespaces/inkscape"
   id="svg2"
   version="1.1"
   inkscape:version="0.92.5 (2060ec1f9f, 2020-04-08)"
   xml:space="preserve"
   width="1024"
   height="414"
   viewBox="0 0 959.99998 388.125"
   sodipodi:docname="logo.svg"
   inkscape:export-filename="/home/akien/Projects/godot/godot.git/logo.png"
   inkscape:export-xdpi="48"
   inkscape:export-ydpi="48"><metadata
     id="metadata8"><rdf:RDF><cc:Work
         rdf:about=""><dc:format>image/svg+xml</dc:format><dc:type
           rdf:resource="http://purl.org/dc/dcmitype/StillImage" /><dc:title /></cc:Work></rdf:RDF></metadata><defs
     id="defs6"><clipPath
       clipPathUnits="userSpaceOnUse"
       id="clipPath16"><path
         d="M 0,595.276 H 841.89 V 0 H 0 Z"
         id="path18"
         inkscape:connector-curvature="0" /></clipPath><linearGradient
       x1="2.796"
       x2="16.211"
       gradientTransform="scale(2.7312,0.36614)"
       y1="26.070999"
       gradientUnits="userSpaceOnUse"
       y2="41.229"
       id="linearGradient2118"><stop
         offset="0"
         style="stop-color:#7c819f"
         id="stop2122" /><stop
         offset="1"
         style="stop-color:#ffffff"
         id="stop2124" /></linearGradient><linearGradient
       x1="2.5112"
       x2="22.521999"
       gradientTransform="scale(2.5736,0.38856)"
       y1="66.524002"
       gradientUnits="userSpaceOnUse"
       xlink:href="#linearGradient2126"
       y2="67.450996"
       id="linearGradient2132" /><linearGradient
       id="linearGradient2126"><stop
         offset="0"
         style="stop-color:#bcc6e2"
         id="stop2128" /><stop
         offset="1"
         style="stop-color:#7a879d"
         id="stop2130" /></linearGradient><linearGradient
       inkscape:collect="always"
       xlink:href="#linearGradient2110"
       id="linearGradient3975"
       gradientUnits="userSpaceOnUse"
       gradientTransform="scale(0.97377,1.0269)"
       x1="7.7020001"
       y1="35.025002"
       x2="60.275002"
       y2="56.445999" /><linearGradient
       x1="7.7020001"
       x2="60.275002"
       gradientTransform="scale(0.97377,1.0269)"
       y1="35.025002"
       gradientUnits="userSpaceOnUse"
       y2="56.445999"
       id="linearGradient2110"><stop
         offset="0"
         style="stop-color:#dcdeed"
         id="stop2106" /><stop
         offset="1"
         style="stop-color:#9fa8bd"
         id="stop2108" /></linearGradient><linearGradient
       x1="2.5818999"
       x2="22.593"
       gradientTransform="scale(2.5736,0.38856)"
       y1="66.758003"
       gradientUnits="userSpaceOnUse"
       xlink:href="#linearGradient2126"
       y2="67.684998"
       id="linearGradient2134" /><linearGradient
       inkscape:collect="always"
       xlink:href="#linearGradient2126"
       id="linearGradient7078"
       gradientUnits="userSpaceOnUse"
       gradientTransform="scale(2.5736,0.38856)"
       x1="2.5112"
       y1="66.524002"
       x2="22.521999"
       y2="67.450996" /><linearGradient
       inkscape:collect="always"
       xlink:href="#linearGradient2126"
       id="linearGradient7080"
       gradientUnits="userSpaceOnUse"
       gradientTransform="scale(2.5736,0.38856)"
       x1="2.5818999"
       y1="66.758003"
       x2="22.593"
       y2="67.684998" /></defs><sodipodi:namedview
     pagecolor="#ffffff"
     bordercolor="#666666"
     borderopacity="1"
     objecttolerance="10"
     gridtolerance="10"
     guidetolerance="10"
     inkscape:pageopacity="0"
     inkscape:pageshadow="2"
     inkscape:window-width="1920"
     inkscape:window-height="1017"
     id="namedview4"
     showgrid="false"
     inkscape:zoom="1.2041016"
     inkscape:cx="495.04088"
     inkscape:cy="218.62693"
     inkscape:window-x="-8"
     inkscape:window-y="-8"
     inkscape:window-maximized="1"
     inkscape:current-layer="g14"
     fit-margin-top="48"
     fit-margin-left="48"
     fit-margin-right="48"
     fit-margin-bottom="48"
     inkscape:document-rotation="0" /><g
     id="g10"
     inkscape:groupmode="layer"
     inkscape:label="godot_engine_logo_2017_curves-01"
     transform="matrix(1.25,0,0,-1.25,-94.249997,597.49874)"><g
       id="g12"><g
         id="g14"
         clip-path="url(#clipPath16)"><g
           id="layer1-3"
           transform="matrix(3.9634323,0,0,-3.9634323,109.53052,456.45241)"
           style="fill:#ffffff"><path
             d="m 57.818,9.5455 a 25.091,3.3636 0 1 1 -50.182,0 25.091,3.3636 0 1 1 50.182,0 z"
             transform="translate(0.18182,0.090909)"
             style="fill:#ffffff;stroke:url(#linearGradient7078)"
             id="path2101-0"
             inkscape:connector-curvature="0" /><path
             d="m 7.5,9.4062 9.844,49.813 c -0.002,0.022 -0.063,0.039 -0.063,0.062 0,0.035 0.089,0.06 0.094,0.094 l 0.031,0.125 H 17.5 c 0.576,1.694 6.979,3.031 15.031,3.031 8.431,0 15.281,-1.443 15.281,-3.25 0,-0.108 0.143,-0.925 0.094,-1.031 l 9.969,-48.75 h -0.094 c 10e-4,0.0123 0.031,0.0189 0.031,0.0312 0,1.8568 -11.243,3.3748 -25.093,3.3748 -13.85,0 -25.094,-1.518 -25.094,-3.3748 0,-0.0429 0.0818,-0.0824 0.0938,-0.125 H 7.5 Z"
             style="fill:#ffffff;fill-rule:evenodd;stroke:url(#linearGradient7080);stroke-width:1px"
             id="path2065-7"
             inkscape:connector-curvature="0" /></g><g
           id="layer1"
           transform="matrix(3.6218577,0,0,-3.6218577,121.20589,445.44273)"><path
             d="m 57.818,9.5455 a 25.091,3.3636 0 1 1 -50.182,0 25.091,3.3636 0 1 1 50.182,0 z"
             transform="translate(0.18182,0.090909)"
             style="fill:url(#linearGradient2118);stroke:url(#linearGradient2132)"
             id="path2101"
             inkscape:connector-curvature="0" /><path
             d="m 7.5,9.4062 9.844,49.813 c -0.002,0.022 -0.063,0.039 -0.063,0.062 0,0.035 0.089,0.06 0.094,0.094 l 0.031,0.125 H 17.5 c 0.576,1.694 6.979,3.031 15.031,3.031 8.431,0 15.281,-1.443 15.281,-3.25 0,-0.108 0.143,-0.925 0.094,-1.031 l 9.969,-48.75 h -0.094 c 10e-4,0.0123 0.031,0.0189 0.031,0.0312 0,1.8568 -11.243,3.3748 -25.093,3.3748 -13.85,0 -25.094,-1.518 -25.094,-3.3748 0,-0.0429 0.0818,-0.0824 0.0938,-0.125 H 7.5 Z"
             style="fill:url(#linearGradient3975);fill-rule:evenodd;stroke:url(#linearGradient2134);stroke-width:1px"
             id="path2065"
             inkscape:connector-curvature="0" /></g><text
           xml:space="preserve"
           style="font-style:normal;font-variant:normal;font-weight:normal;font-stretch:normal;font-size:96.74766541px;line-height:10.25;font-family:'Cambria Math';-inkscape-font-specification:'Cambria Math';text-align:start;letter-spacing:0px;word-spacing:0px;text-anchor:start;fill:#ff0000;fill-opacity:1;stroke:#000000;stroke-width:3.40128541;stroke-miterlimit:4;stroke-dasharray:none;stroke-opacity:1"
           x="493.34149"
           y="-255.26073"
           id="text3979"
           transform="scale(0.87780675,-1.1392029)"><tspan
             sodipodi:role="line"
             id="tspan3977"
             x="493.34149"
             y="-255.26073"
             style="font-style:normal;font-variant:normal;font-weight:normal;font-stretch:normal;font-size:96.74766541px;line-height:10.25;font-family:'Cambria Math';-inkscape-font-specification:'Cambria Math';text-align:start;text-anchor:start;fill:#ff0000;stroke:#000000;stroke-width:3.40128541;stroke-miterlimit:4;stroke-dasharray:none;stroke-opacity:1">TrashDot</tspan></text>
<circle
           style="opacity:0.5;fill:#ff0000;stroke:none;stroke-width:2.25;stroke-miterlimit:4;stroke-dasharray:none;stroke-opacity:1"
           id="path4794"
           cx="239.02853"
           cy="-246.36993"
           r="27.406324"
           transform="scale(1,-1)" /><text
           xml:space="preserve"
           style="font-style:normal;font-variant:normal;font-weight:normal;font-stretch:normal;font-size:39.85803604px;line-height:1.25;font-family:'Comic Sans MS';-inkscape-font-specification:'Comic Sans MS';letter-spacing:0px;word-spacing:0px;fill:#ffffff;fill-opacity:1;stroke:#000000;stroke-width:1.99290192;stroke-miterlimit:4;stroke-dasharray:none;stroke-opacity:1"
           x="485.88037"
           y="-236.60046"
           id="text4798"
           transform="scale(1,-1)"><tspan
             sodipodi:role="line"
             id="tspan4796"
             x="485.88037"
             y="-236.60046"
             style="font-style:normal;font-variant:normal;font-weight:normal;font-stretch:normal;font-family:'Comic Sans MS';-inkscape-font-specification:'Comic Sans MS';fill:#ffffff;stroke:#000000;stroke-width:1.99290192;stroke-miterlimit:4;stroke-dasharray:none;stroke-opacity:1">Game Engine</tspan></text>
</g></g></g></svg>